<?xml version="1.0" standalone="no"?>
<!DOCTYPE svg PUBLIC "-//W3C//DTD SVG 20010904//EN"
 "http://www.w3.org/TR/2001/REC-SVG-20010904/DTD/svg10.dtd">
<svg version="1.0" xmlns="http://www.w3.org/2000/svg"
 width="931.000000pt" height="931.000000pt" viewBox="0 0 931.000000 931.000000"
 preserveAspectRatio="xMidYMid meet">
<metadata>
Created by potrace 1.11, written by Peter Selinger 2001-2013
</metadata>
<g transform="translate(0.000000,931.000000) scale(0.100000,-0.100000)"
fill="#000000" stroke="none">
<path d="M5628 8823 c-132 -17 -372 -79 -493 -125 -193 -75 -410 -201 -580
-336 -98 -78 -268 -251 -346 -352 -219 -284 -362 -608 -436 -990 -11 -59 -17
-151 -19 -302 -1 -119 -5 -222 -9 -229 -28 -44 -454 104 -780 271 -390 200
-781 510 -1020 810 -46 58 -92 115 -103 127 -43 47 -153 38 -191 -15 -24 -34
-41 -149 -41 -275 0 -222 73 -510 202 -802 44 -100 180 -351 246 -455 28 -44
33 -59 26 -80 -13 -36 -43 -36 -126 3 -118 55 -135 62 -298 126 -85 33 -216
85 -290 116 -173 71 -200 78 -248 65 -109 -29 -118 -114 -40 -360 70 -223 257
-530 466 -770 138 -156 268 -293 378 -395 65 -60 140 -131 166 -157 27 -27 54
-48 59 -48 18 0 9 -37 -15 -59 -22 -20 -28 -21 -65 -11 -57 15 -213 34 -624
75 -325 33 -351 34 -382 19 -38 -18 -67 -69 -67 -119 0 -19 18 -67 43 -115
147 -283 482 -568 1020 -868 228 -127 613 -314 914 -442 123 -53 143 -69 129
-107 -12 -34 -73 -72 -300 -186 -468 -236 -930 -376 -1464 -442 -266 -34 -338
-37 -656 -32 -300 5 -323 4 -352 -13 -60 -37 -66 -127 -12 -195 17 -21 30 -42
30 -46 0 -12 438 -450 485 -484 47 -35 235 -184 253 -202 28 -27 271 -189 395
-264 158 -96 483 -258 657 -327 429 -172 876 -278 1360 -323 183 -17 632 -14
830 5 986 97 1868 476 2623 1126 105 90 367 353 464 465 174 201 324 408 487
673 54 87 276 522 276 541 0 8 11 35 60 146 62 141 186 575 235 820 135 683
102 1463 -91 2167 -35 124 -30 132 87 172 94 32 261 113 329 159 175 121 361
352 385 479 15 79 -51 153 -130 145 -48 -5 -416 -74 -465 -87 -57 -16 -87 -12
-104 12 -9 12 -16 26 -16 30 0 5 24 34 54 67 29 32 65 78 79 102 72 123 151
383 136 448 -11 50 -48 82 -100 88 -24 3 -56 0 -70 -5 -15 -6 -66 -57 -115
-114 -178 -209 -284 -306 -418 -388 -103 -62 -102 -63 -181 96 -69 138 -178
311 -235 374 -168 184 -346 340 -536 468 -78 52 -300 164 -416 208 -124 48
-330 100 -473 118 -147 20 -420 19 -567 -1z m554 -118 c177 -23 448 -94 448
-116 0 -6 5 -7 10 -4 29 18 491 -248 581 -334 9 -9 43 -38 74 -66 133 -114
222 -214 313 -347 79 -117 192 -326 192 -355 0 -15 53 -61 83 -72 50 -19 100
-12 172 23 138 66 288 197 462 404 88 104 129 140 103 92 -6 -11 -8 -20 -5
-20 4 0 3 -6 -2 -12 -4 -7 -9 -28 -10 -47 -1 -19 -7 -37 -13 -41 -6 -4 -10
-11 -9 -16 2 -10 1 -13 -42 -117 -34 -82 -57 -116 -120 -182 -55 -58 -75 -115
-60 -170 5 -19 7 -35 5 -35 -2 0 10 -16 28 -36 41 -44 77 -64 119 -64 30 0
501 84 542 96 22 7 22 2 -4 -49 -62 -122 -178 -253 -299 -339 -56 -39 -240
-143 -248 -139 -1 1 -19 -6 -39 -14 -20 -9 -48 -18 -62 -22 -143 -34 -191
-147 -132 -308 10 -27 16 -56 14 -62 -3 -7 1 -13 7 -13 7 0 9 -8 5 -20 -3 -11
-3 -25 2 -32 4 -7 8 -15 9 -18 0 -3 3 -12 7 -20 3 -8 8 -33 12 -55 11 -75 13
-90 15 -92 2 -2 3 -11 4 -20 1 -10 4 -23 8 -29 10 -15 54 -331 69 -494 27
-283 10 -828 -32 -1062 -5 -29 -11 -64 -13 -78 -3 -14 -7 -36 -10 -50 -4 -22
-9 -48 -20 -110 -2 -8 -6 -22 -10 -31 -4 -9 -6 -20 -5 -25 1 -5 1 -11 0 -14
-1 -3 -4 -22 -6 -44 -2 -21 -9 -44 -15 -52 -7 -7 -9 -18 -6 -23 4 -5 2 -12 -3
-16 -6 -3 -8 -12 -5 -19 3 -8 0 -17 -5 -21 -6 -3 -9 -11 -5 -16 3 -5 1 -16 -5
-23 -7 -8 -13 -28 -14 -45 -1 -17 -5 -31 -9 -31 -6 0 -18 -42 -23 -80 -1 -8
-5 -22 -8 -30 -4 -8 -27 -71 -51 -140 -64 -180 -80 -223 -91 -240 -5 -8 -11
-24 -12 -35 -2 -10 -11 -31 -21 -45 -9 -14 -17 -27 -18 -30 0 -3 -6 -18 -13
-35 -7 -16 -13 -32 -13 -35 0 -3 -8 -16 -17 -30 -9 -14 -23 -38 -30 -55 -16
-39 -134 -258 -166 -310 -14 -22 -29 -51 -35 -64 -6 -13 -24 -39 -40 -58 -17
-19 -30 -38 -30 -43 0 -12 -85 -133 -105 -150 -8 -7 -15 -17 -15 -22 0 -15
-121 -168 -133 -168 -6 0 -8 -3 -4 -6 17 -17 -397 -454 -563 -595 -157 -133
-242 -199 -251 -193 -5 3 -8 2 -7 -3 2 -4 -1 -10 -7 -13 -5 -3 -21 -16 -35
-28 -14 -13 -59 -46 -100 -73 -41 -27 -88 -59 -104 -72 -16 -12 -33 -22 -38
-22 -4 0 -24 -12 -42 -27 -19 -16 -40 -28 -47 -28 -7 0 -21 -8 -31 -17 -35
-31 -552 -293 -579 -293 -8 0 -19 -4 -24 -9 -17 -15 -284 -108 -420 -146 -71
-20 -138 -38 -149 -41 -14 -5 -16 -3 -11 7 5 8 -1 6 -12 -3 -11 -10 -27 -18
-36 -18 -9 0 -19 -5 -22 -10 -4 -6 -11 -8 -16 -4 -6 3 -18 3 -27 -1 -9 -4 -30
-9 -46 -11 l-30 -4 25 27 c22 25 21 25 -11 -3 -35 -31 -115 -63 -127 -51 -3 4
-11 3 -17 -2 -6 -5 -34 -12 -61 -15 -28 -2 -68 -8 -89 -12 -32 -6 -38 -5 -31
7 6 10 3 9 -11 -2 -10 -9 -26 -16 -34 -16 -8 0 -33 -4 -54 -8 -32 -6 -37 -5
-31 6 7 12 6 12 -7 1 -9 -7 -49 -16 -90 -19 l-73 -6 30 34 c27 31 27 31 -11
-4 l-41 -38 -112 2 c-62 1 -115 -1 -118 -5 -8 -8 -100 -8 -197 1 l-77 6 28 31
c26 28 25 28 -9 -3 l-38 -34 -151 12 c-83 7 -165 15 -181 18 l-29 6 33 36 33
36 -42 -39 -41 -38 -64 11 c-77 15 -101 19 -158 26 -25 3 -52 8 -60 12 -8 3
-26 7 -40 9 -14 1 -36 6 -50 9 -14 3 -29 7 -35 8 -5 2 -16 6 -23 11 -7 4 -19
5 -27 2 -8 -3 -15 -1 -15 4 0 5 -7 7 -15 4 -8 -4 -21 -2 -28 4 -6 5 -61 22
-122 37 -138 36 -178 52 -168 68 5 9 3 9 -8 0 -13 -10 -34 -7 -115 21 -112 38
-187 67 -194 75 -3 3 -14 8 -25 9 -11 2 -23 9 -26 14 -4 6 -15 11 -25 12 -11
1 -43 14 -71 29 -29 15 -53 25 -53 22 0 -3 -11 2 -25 11 -14 9 -25 12 -25 8 0
-5 -4 -4 -8 2 -4 6 -52 33 -107 60 -134 67 -237 123 -256 140 -8 8 -19 14 -23
14 -4 0 -34 18 -68 41 l-60 41 34 37 33 36 -35 -32 c-20 -18 -39 -33 -43 -33
-10 0 -275 187 -292 206 -5 6 -41 36 -80 66 -38 30 -76 62 -84 71 -7 10 -17
17 -22 17 -12 0 -74 58 -249 235 -193 193 -191 192 -232 245 l-35 46 344 -3
c190 -2 348 -1 353 2 7 4 107 12 200 16 8 0 22 3 30 6 14 5 50 10 115 17 17 1
37 6 45 9 8 4 24 5 35 3 11 -2 27 0 36 5 10 5 37 11 60 13 69 7 318 67 509
122 149 43 259 81 276 95 8 6 14 8 14 5 0 -4 10 -1 23 6 12 7 26 11 31 10 5
-2 17 5 27 14 11 9 19 14 19 9 0 -4 7 -2 15 5 8 7 15 9 15 6 0 -4 12 0 27 8
35 18 66 30 76 28 4 -1 7 2 7 6 0 4 21 16 48 27 64 25 333 163 353 181 8 8 22
14 31 14 8 0 23 9 33 20 10 12 24 19 31 16 6 -2 29 14 50 37 l39 42 -44 -40
-44 -40 31 40 c18 22 32 46 32 54 0 8 12 29 28 45 20 23 21 26 3 11 l-23 -20
3 30 c3 36 -49 126 -83 143 -13 6 -93 41 -178 78 -163 70 -315 139 -340 153
-8 5 -14 15 -12 23 3 10 1 10 -9 1 -9 -9 -16 -10 -26 -2 -7 7 -13 8 -13 5 0
-4 -7 0 -16 8 -8 9 -19 14 -24 11 -5 -3 -10 -1 -12 3 -1 5 -68 41 -148 80
-178 87 -303 154 -312 167 -5 7 -8 7 -8 0 0 -6 -3 -6 -8 1 -8 11 -112 76 -112
69 0 -2 -12 7 -26 20 -15 14 -31 25 -35 25 -5 0 -37 19 -71 42 -35 23 -87 57
-115 76 -29 20 -53 39 -53 44 0 4 -7 8 -15 8 -8 0 -20 9 -27 20 -7 11 -17 20
-22 20 -20 0 -224 191 -294 275 -40 48 -82 106 -82 114 0 4 -9 16 -20 26 -11
10 -17 21 -15 26 3 4 0 14 -7 21 -7 8 -19 24 -26 36 -11 21 -10 22 21 22 35 0
714 -66 777 -76 108 -16 160 -27 160 -34 0 -14 97 17 131 40 33 25 68 90 69
129 0 59 -23 99 -93 162 -38 35 -77 68 -86 73 -23 14 -343 338 -404 409 -28
34 -54 64 -57 67 -17 16 -132 163 -168 214 -117 164 -192 296 -239 421 -17 44
-34 89 -38 100 -5 11 -7 23 -7 28 1 4 -1 7 -6 7 -4 0 -7 13 -8 29 -1 16 -5 37
-9 47 -8 20 -16 94 -9 94 7 0 119 -43 129 -50 6 -3 29 -12 53 -20 23 -7 42
-17 42 -22 0 -4 3 -7 8 -6 4 1 18 -4 32 -9 14 -6 122 -49 240 -96 118 -47 243
-100 278 -117 55 -29 70 -32 116 -27 75 7 110 29 135 80 27 57 27 118 -1 171
-13 22 -25 43 -28 46 -10 10 -31 46 -41 72 -6 14 -17 29 -25 32 -9 3 -12 10
-9 16 3 5 2 10 -3 10 -10 0 -159 295 -192 380 -11 30 -25 64 -30 75 -5 11 -19
52 -31 90 -12 39 -26 75 -31 82 -5 7 -7 17 -3 23 4 6 2 17 -4 24 -7 8 -14 29
-17 47 -8 51 -11 63 -17 79 -34 86 -35 460 -1 460 8 0 14 -4 14 -9 0 -9 44
-63 202 -248 37 -43 86 -94 109 -113 23 -19 69 -60 103 -90 137 -123 217 -184
404 -309 182 -122 331 -202 518 -281 54 -23 127 -55 162 -71 34 -16 70 -31 80
-33 9 -1 31 -8 47 -15 37 -15 238 -76 282 -85 67 -15 170 40 195 103 12 31 13
79 3 104 -10 25 0 377 11 385 5 4 10 30 11 57 2 28 10 75 18 105 9 30 16 64
16 75 0 11 7 30 15 43 8 12 13 26 10 30 -10 17 165 422 186 430 4 2 8 9 8 16
0 16 108 180 153 231 19 22 64 74 100 116 71 83 222 217 332 296 84 60 242
152 305 177 25 10 50 22 55 26 17 14 162 68 257 95 79 23 265 58 358 68 95 10
370 6 472 -8z"/>
<path d="M6019 7503 c-13 -14 -28 -171 -78 -808 -34 -434 -64 -796 -66 -802
-3 -7 -9 -13 -15 -13 -7 0 -10 178 -10 546 l0 546 -66 186 c-36 103 -71 193
-77 200 -6 7 -22 12 -36 10 -24 -3 -31 -17 -93 -188 l-68 -185 -2 -555 -3
-555 -25 0 c-17 0 -26 6 -28 20 -1 11 -29 334 -62 717 -41 486 -64 706 -74
725 -56 108 -202 126 -279 34 -39 -47 -47 -89 -37 -189 14 -124 15 -119 -25
-126 -45 -9 -83 -42 -98 -88 -14 -40 -15 -19 28 -526 15 -172 24 -320 21 -328
-3 -8 -19 -20 -35 -25 -39 -14 -49 -45 -24 -70 36 -36 124 11 142 76 5 18 5
77 0 136 -22 256 -50 580 -56 641 -4 48 -2 72 7 83 16 19 60 20 60 1 0 -8 20
-251 45 -541 25 -289 43 -530 40 -535 -4 -6 -26 -10 -49 -10 -26 0 -48 -6 -56
-15 -9 -11 -6 -101 14 -417 14 -222 42 -653 61 -958 19 -305 37 -575 40 -600
7 -60 44 -113 97 -139 43 -21 55 -21 567 -21 492 0 524 1 559 19 94 48 96 58
127 537 88 1383 99 1560 92 1577 -5 13 -19 17 -57 17 l-50 0 0 36 c0 20 5 88
10 152 6 65 31 374 55 687 25 314 47 600 51 636 4 48 2 68 -8 76 -7 7 -103 19
-213 27 -110 9 -225 19 -255 22 -46 4 -58 2 -71 -13z m276 -88 c94 -8 173 -15
178 -15 4 0 7 -19 7 -41 l0 -42 -89 6 c-77 5 -91 3 -105 -12 -38 -42 -4 -67
97 -74 44 -3 81 -8 84 -10 2 -3 1 -21 -2 -41 -7 -35 -8 -36 -45 -30 -44 7 -80
-9 -80 -36 0 -30 28 -50 69 -50 21 0 40 -2 42 -5 3 -2 3 -21 1 -41 l-4 -36
-43 4 c-51 6 -75 -5 -75 -36 0 -31 17 -44 65 -48 38 -3 40 -5 43 -40 l3 -38
-56 0 c-49 0 -57 -3 -67 -25 -16 -35 2 -52 63 -60 51 -7 56 -14 43 -61 -5 -19
-11 -20 -93 -16 -72 4 -89 1 -100 -12 -11 -13 -11 -22 -3 -40 10 -22 19 -25
96 -31 l86 -7 0 -39 0 -38 -57 -3 c-54 -3 -58 -5 -61 -29 -4 -33 13 -47 63
-51 38 -3 40 -5 43 -40 l3 -38 -55 0 c-45 0 -57 -4 -66 -20 -18 -34 3 -57 60
-65 52 -7 57 -14 44 -62 -6 -20 -11 -22 -44 -17 -44 7 -80 -9 -80 -36 0 -30
28 -50 70 -50 46 0 49 -4 43 -48 l-5 -33 -84 7 c-89 7 -114 -1 -114 -36 0 -30
30 -44 109 -50 68 -4 76 -7 76 -25 0 -19 -6 -20 -195 -19 l-195 1 2 39 c5 101
115 1481 118 1492 5 15 3 15 210 -3z m-1079 -78 c19 -16 29 -37 34 -70 4 -26
4 -49 1 -51 -3 -3 -43 -7 -89 -11 l-82 -8 0 52 c0 45 4 57 29 82 36 35 70 37
107 6z m494 -222 c13 -38 25 -76 28 -82 3 -10 -13 -13 -63 -13 -37 0 -65 4
-63 8 2 4 16 45 32 90 16 45 33 79 37 75 3 -5 17 -39 29 -78z m-450 -4 c0 -17
-10 -20 -76 -26 -51 -5 -79 -4 -87 4 -17 17 0 26 71 32 37 3 73 7 80 7 6 1 12
-7 12 -17z m15 -143 c3 -24 19 -205 35 -403 17 -198 37 -430 44 -515 8 -85 12
-158 9 -162 -2 -5 -40 -8 -83 -8 -75 0 -80 1 -84 23 -3 12 -19 195 -36 407
-17 212 -37 450 -45 530 -7 80 -12 147 -10 148 2 2 37 7 77 12 40 4 76 8 80 9
4 0 9 -18 13 -41z m485 -563 l0 -526 -82 3 -83 3 -3 523 -2 522 85 0 85 0 0
-525z m712 -645 c-1 -19 -14 -215 -27 -435 -14 -220 -30 -465 -35 -545 -11
-152 -35 -529 -49 -763 -10 -153 -20 -179 -73 -196 -22 -7 -204 -10 -531 -8
l-499 2 -27 31 c-33 37 -30 4 -67 613 -21 333 -25 438 -16 452 9 14 9 17 -1
13 -10 -3 -18 74 -36 353 -12 197 -25 395 -28 441 l-6 82 699 -2 699 -3 -3
-35z"/>
<path d="M6343 5728 c-16 -20 -25 -126 -13 -148 12 -23 52 -27 68 -7 12 15 19
138 8 155 -10 16 -51 15 -63 0z"/>
<path d="M6322 5458 c-13 -17 -72 -918 -61 -939 17 -34 63 -33 74 1 13 40 63
915 54 933 -11 20 -52 23 -67 5z"/>
<path d="M5999 4543 c-13 -16 -12 -17 4 -4 16 13 21 21 13 21 -2 0 -10 -8 -17
-17z"/>
<path d="M6256 4388 c-10 -16 -18 -86 -26 -226 -13 -213 -11 -232 30 -232 37
0 44 27 57 237 13 191 13 207 -3 224 -23 25 -40 24 -58 -3z"/>
<path d="M2904 4508 l-19 -23 23 19 c21 18 27 26 19 26 -2 0 -12 -10 -23 -22z"/>
<path d="M2809 4413 c-13 -16 -12 -17 4 -4 16 13 21 21 13 21 -2 0 -10 -8 -17
-17z"/>
<path d="M2899 4203 l-24 -28 28 24 c25 23 32 31 24 31 -2 0 -14 -12 -28 -27z"/>
<path d="M2474 3598 l-19 -23 23 19 c21 18 27 26 19 26 -2 0 -12 -10 -23 -22z"/>
<path d="M6974 3578 l-19 -23 23 19 c12 11 22 21 22 23 0 8 -8 2 -26 -19z"/>
<path d="M6609 3573 c-13 -16 -12 -17 4 -4 9 7 17 15 17 17 0 8 -8 3 -21 -13z"/>
<path d="M5964 3408 l-19 -23 23 19 c21 18 27 26 19 26 -2 0 -12 -10 -23 -22z"/>
<path d="M5029 3323 c-13 -16 -12 -17 4 -4 9 7 17 15 17 17 0 8 -8 3 -21 -13z"/>
<path d="M3869 3233 c-13 -16 -12 -17 4 -4 16 13 21 21 13 21 -2 0 -10 -8 -17
-17z"/>
<path d="M7809 3213 c-13 -16 -12 -17 4 -4 16 13 21 21 13 21 -2 0 -10 -8 -17
-17z"/>
<path d="M3434 3138 l-19 -23 23 19 c12 11 22 21 22 23 0 8 -8 2 -26 -19z"/>
<path d="M4409 3143 c-13 -16 -12 -17 4 -4 16 13 21 21 13 21 -2 0 -10 -8 -17
-17z"/>
<path d="M5844 3138 l-19 -23 23 19 c12 11 22 21 22 23 0 8 -8 2 -26 -19z"/>
<path d="M6046 3144 c-3 -9 -6 -60 -6 -115 0 -54 -7 -194 -15 -311 -16 -228
-24 -528 -14 -528 3 0 9 -27 12 -60 11 -98 37 -123 86 -82 20 16 21 21 12 63
-19 82 -24 281 -12 463 13 194 16 541 5 569 -8 22 -60 23 -68 1z"/>
<path d="M5160 3135 c-11 -14 -11 -58 0 -270 18 -357 2 -571 -50 -688 -82
-181 -156 -63 -211 333 -6 47 -12 199 -13 338 -1 213 -3 254 -16 262 -58 37
-74 -54 -75 -425 0 -286 9 -364 56 -491 77 -204 232 -246 321 -88 39 70 53
146 78 434 26 282 24 448 -7 545 -16 51 -23 60 -44 63 -15 2 -32 -4 -39 -13z"/>
<path d="M5451 3141 c-10 -7 -13 -38 -10 -146 l4 -138 -43 -13 c-47 -13 -82
-39 -82 -60 0 -20 30 -45 49 -40 42 12 85 18 79 11 -4 -5 -3 -14 2 -20 7 -8
13 -126 16 -296 3 -156 10 -303 16 -327 11 -42 10 -44 -23 -80 l-34 -37 37 34
37 34 31 -27 c59 -49 130 -22 174 66 39 79 32 178 -12 178 -26 0 -42 -20 -42
-53 0 -16 -8 -42 -17 -57 -18 -31 -59 -58 -70 -46 -7 7 -31 430 -32 579 l-1
67 68 0 c64 0 70 2 80 25 22 49 9 58 -100 70 l-57 6 -3 137 -3 137 -25 3 c-14
1 -31 -2 -39 -7z"/>
<path d="M3548 3111 c-61 -9 -75 -22 -62 -58 11 -31 7 -30 132 -18 l72 7 -4
-96 c-3 -60 -9 -103 -18 -113 -9 -12 -9 -15 0 -9 24 15 11 -600 -15 -664 -3
-8 -6 -18 -5 -22 1 -4 -2 -28 -7 -53 -7 -36 -5 -49 6 -60 21 -22 50 -18 67 8
37 58 72 438 62 670 -6 115 -4 152 6 165 7 9 8 13 2 9 -11 -7 -24 61 -24 130
l0 32 73 3 72 3 0 35 0 35 -155 1 c-85 1 -176 -1 -202 -5z"/>
<path d="M4519 3103 c-13 -16 -12 -17 4 -4 9 7 17 15 17 17 0 8 -8 3 -21 -13z"/>
<path d="M5835 3053 c-63 -10 -73 -52 -25 -103 26 -28 35 -32 66 -27 50 8 64
23 64 68 0 28 -6 42 -22 53 -23 16 -28 17 -83 9z"/>
<path d="M7555 2968 l-40 -43 43 40 c23 21 42 40 42 42 0 8 -9 0 -45 -39z"/>
<path d="M3589 2973 l-24 -28 28 24 c25 23 32 31 24 31 -2 0 -14 -12 -28 -27z"/>
<path d="M3329 2893 l-34 -38 38 34 c20 19 37 36 37 38 0 8 -8 0 -41 -34z"/>
<path d="M7559 2913 c-13 -16 -12 -17 4 -4 16 13 21 21 13 21 -2 0 -10 -8 -17
-17z"/>
<path d="M4003 2814 c-3 -10 0 -31 7 -48 53 -128 125 -369 143 -481 3 -16 15
-75 27 -130 12 -55 22 -105 23 -111 0 -12 63 -18 71 -6 3 5 26 80 51 167 25
87 47 160 49 163 9 8 74 -215 81 -276 6 -53 11 -65 31 -74 17 -8 27 -8 39 2
23 19 60 154 109 396 25 121 52 249 61 284 17 64 17 65 -6 83 -28 23 -51 18
-66 -13 -6 -14 -28 -106 -48 -205 -20 -99 -43 -213 -52 -254 l-15 -75 -14 33
c-51 121 -77 220 -78 291 -1 64 -4 75 -19 78 -36 7 -67 -7 -67 -31 0 -26 -69
-315 -80 -336 -5 -9 -16 24 -30 85 -56 251 -93 364 -138 424 -40 54 -67 65
-79 34z"/>
<path d="M3619 2783 l-24 -28 28 24 c25 23 32 31 24 31 -2 0 -14 -12 -28 -27z"/>
<path d="M5823 2798 c-4 -7 -8 -130 -8 -273 0 -143 -4 -310 -9 -371 -9 -108
-8 -112 13 -123 49 -27 84 38 95 178 8 98 -13 573 -26 589 -6 6 -21 12 -34 12
-12 0 -26 -6 -31 -12z"/>
<path d="M6336 2796 c-75 -28 -145 -120 -146 -191 0 -65 42 -127 151 -221 122
-105 147 -145 126 -196 -32 -75 -109 -97 -174 -49 -36 27 -54 24 -79 -14 -16
-24 -16 -27 -1 -43 16 -15 15 -18 -6 -42 l-22 -25 26 22 25 23 39 -20 c70 -36
169 -22 231 32 37 33 64 76 64 104 0 10 8 27 18 38 16 20 16 20 0 7 -16 -12
-18 -11 -18 11 0 57 -48 125 -151 208 -106 87 -129 118 -129 176 0 28 8 44 34
70 44 44 86 45 147 4 50 -34 62 -36 78 -16 16 19 -18 89 -55 112 -34 23 -110
27 -158 10z"/>
<path d="M3339 2713 l-24 -28 28 24 c25 23 32 31 24 31 -2 0 -14 -12 -28 -27z"/>
<path d="M4444 2678 l-19 -23 23 19 c12 11 22 21 22 23 0 8 -8 2 -26 -19z"/>
<path d="M6404 2598 l-29 -33 33 29 c17 17 32 31 32 33 0 8 -8 1 -36 -29z"/>
<path d="M4244 2578 l-19 -23 23 19 c12 11 22 21 22 23 0 8 -8 2 -26 -19z"/>
<path d="M3159 2563 l-24 -28 28 24 c25 23 32 31 24 31 -2 0 -14 -12 -28 -27z"/>
<path d="M4689 2553 c-13 -16 -12 -17 4 -4 16 13 21 21 13 21 -2 0 -10 -8 -17
-17z"/>
<path d="M6344 2538 l-19 -23 23 19 c21 18 27 26 19 26 -2 0 -12 -10 -23 -22z"/>
<path d="M5629 2523 c-13 -16 -12 -17 4 -4 9 7 17 15 17 17 0 8 -8 3 -21 -13z"/>
<path d="M5334 2468 l-29 -33 33 29 c17 17 32 31 32 33 0 8 -8 1 -36 -29z"/>
<path d="M4239 2473 c-13 -16 -12 -17 4 -4 16 13 21 21 13 21 -2 0 -10 -8 -17
-17z"/>
<path d="M2330 2413 l-55 -58 58 55 c31 30 57 56 57 57 0 8 -10 -1 -60 -54z"/>
<path d="M7079 2443 l-24 -28 28 24 c15 14 27 26 27 28 0 8 -8 1 -31 -24z"/>
<path d="M4759 2383 c-13 -16 -12 -17 4 -4 16 13 21 21 13 21 -2 0 -10 -8 -17
-17z"/>
<path d="M6619 2253 c-13 -16 -12 -17 4 -4 16 13 21 21 13 21 -2 0 -10 -8 -17
-17z"/>
<path d="M6649 2223 l-24 -28 28 24 c15 14 27 26 27 28 0 8 -8 1 -31 -24z"/>
<path d="M4099 2213 c-13 -16 -12 -17 4 -4 16 13 21 21 13 21 -2 0 -10 -8 -17
-17z"/>
<path d="M4124 2198 l-19 -23 23 19 c12 11 22 21 22 23 0 8 -8 2 -26 -19z"/>
<path d="M1844 2158 l-29 -33 33 29 c17 17 32 31 32 33 0 8 -8 1 -36 -29z"/>
<path d="M3469 2143 c-13 -16 -12 -17 4 -4 16 13 21 21 13 21 -2 0 -10 -8 -17
-17z"/>
<path d="M5364 2138 l-19 -23 23 19 c12 11 22 21 22 23 0 8 -8 2 -26 -19z"/>
<path d="M2949 2113 c-13 -16 -12 -17 4 -4 9 7 17 15 17 17 0 8 -8 3 -21 -13z"/>
<path d="M569 2093 l-24 -28 28 24 c25 23 32 31 24 31 -2 0 -14 -12 -28 -27z"/>
<path d="M3480 2053 l-65 -68 68 65 c62 60 72 70 64 70 -1 0 -32 -30 -67 -67z"/>
<path d="M4729 2103 c-13 -16 -12 -17 4 -4 16 13 21 21 13 21 -2 0 -10 -8 -17
-17z"/>
<path d="M5919 2103 c-13 -16 -12 -17 4 -4 16 13 21 21 13 21 -2 0 -10 -8 -17
-17z"/>
<path d="M984 2088 l-19 -23 23 19 c21 18 27 26 19 26 -2 0 -12 -10 -23 -22z"/>
<path d="M1397 2103 c-4 -3 -7 -11 -7 -17 0 -6 5 -5 12 2 6 6 9 14 7 17 -3 3
-9 2 -12 -2z"/>
<path d="M1779 2093 c-13 -16 -12 -17 4 -4 9 7 17 15 17 17 0 8 -8 3 -21 -13z"/>
<path d="M7169 2083 c-13 -16 -12 -17 4 -4 16 13 21 21 13 21 -2 0 -10 -8 -17
-17z"/>
<path d="M5170 2023 l-55 -58 58 55 c53 50 62 60 54 60 -1 0 -27 -26 -57 -57z"/>
<path d="M3559 2053 c-13 -16 -12 -17 4 -4 16 13 21 21 13 21 -2 0 -10 -8 -17
-17z"/>
<path d="M4605 2018 l-50 -53 53 50 c28 27 52 51 52 52 0 8 -9 -1 -55 -49z"/>
<path d="M3764 2038 l-19 -23 23 19 c12 11 22 21 22 23 0 8 -8 2 -26 -19z"/>
<path d="M4639 2003 c-13 -16 -12 -17 4 -4 16 13 21 21 13 21 -2 0 -10 -8 -17
-17z"/>
<path d="M6009 1953 c-13 -16 -12 -17 4 -4 16 13 21 21 13 21 -2 0 -10 -8 -17
-17z"/>
<path d="M5969 1943 c-13 -16 -12 -17 4 -4 16 13 21 21 13 21 -2 0 -10 -8 -17
-17z"/>
<path d="M6205 1908 l-40 -43 43 40 c39 36 47 45 39 45 -2 0 -21 -19 -42 -42z"/>
<path d="M1209 1903 l-24 -28 28 24 c25 23 32 31 24 31 -2 0 -14 -12 -28 -27z"/>
<path d="M6104 1868 l-29 -33 33 29 c17 17 32 31 32 33 0 8 -8 1 -36 -29z"/>
<path d="M2059 1863 c-13 -16 -12 -17 4 -4 9 7 17 15 17 17 0 8 -8 3 -21 -13z"/>
<path d="M3384 1818 l-29 -33 33 29 c17 17 32 31 32 33 0 8 -8 1 -36 -29z"/>
<path d="M4120 1753 l-55 -58 58 55 c53 50 62 60 54 60 -1 0 -27 -26 -57 -57z"/>
<path d="M3325 1729 c-28 -28 -45 -50 -40 -48 11 4 101 99 93 99 -2 0 -26 -23
-53 -51z"/>
<path d="M6509 1743 l-24 -28 28 24 c15 14 27 26 27 28 0 8 -8 1 -31 -24z"/>
<path d="M2362 1673 c-83 -83 -84 -83 -12 -18 41 38 84 77 95 87 11 10 16 18
12 18 -4 0 -47 -39 -95 -87z"/>
<path d="M1899 1713 l-34 -38 38 34 c34 33 42 41 34 41 -2 0 -19 -17 -38 -37z"/>
<path d="M3694 1718 l-29 -33 33 29 c30 28 37 36 29 36 -2 0 -16 -15 -33 -32z"/>
<path d="M3479 1713 c-13 -16 -12 -17 4 -4 16 13 21 21 13 21 -2 0 -10 -8 -17
-17z"/>
<path d="M4475 1668 l-50 -53 53 50 c28 27 52 51 52 52 0 8 -9 -1 -55 -49z"/>
<path d="M2710 1643 l-55 -58 58 55 c53 50 62 60 54 60 -1 0 -27 -26 -57 -57z"/>
<path d="M5289 1643 c-13 -16 -12 -17 4 -4 16 13 21 21 13 21 -2 0 -10 -8 -17
-17z"/>
<path d="M1749 1633 c-13 -16 -12 -17 4 -4 9 7 17 15 17 17 0 8 -8 3 -21 -13z"/>
<path d="M5969 1613 l-34 -38 38 34 c34 33 42 41 34 41 -2 0 -19 -17 -38 -37z"/>
<path d="M6349 1623 l-24 -28 28 24 c15 14 27 26 27 28 0 8 -8 1 -31 -24z"/>
<path d="M1955 1598 l-40 -43 43 40 c39 36 47 45 39 45 -2 0 -21 -19 -42 -42z"/>
<path d="M6499 1613 c-13 -16 -12 -17 4 -4 9 7 17 15 17 17 0 8 -8 3 -21 -13z"/>
<path d="M6524 1598 l-19 -23 23 19 c21 18 27 26 19 26 -2 0 -12 -10 -23 -22z"/>
<path d="M2494 1548 l-29 -33 33 29 c30 28 37 36 29 36 -2 0 -16 -15 -33 -32z"/>
<path d="M3624 1538 l-19 -23 23 19 c12 11 22 21 22 23 0 8 -8 2 -26 -19z"/>
<path d="M5645 1518 l-40 -43 43 40 c39 36 47 45 39 45 -2 0 -21 -19 -42 -42z"/>
<path d="M4700 1515 c-35 -37 -36 -64 -1 -31 15 15 28 33 28 41 0 19 1 19 -27
-10z m20 2 c0 -2 -10 -12 -22 -23 l-23 -19 19 23 c18 21 26 27 26 19z"/>
<path d="M5035 1498 l-40 -43 43 40 c39 36 47 45 39 45 -2 0 -21 -19 -42 -42z"/>
<path d="M2319 1503 l-24 -28 28 24 c25 23 32 31 24 31 -2 0 -14 -12 -28 -27z"/>
<path d="M3549 1463 l-34 -38 38 34 c20 19 37 36 37 38 0 8 -8 0 -41 -34z"/>
<path d="M3789 1463 c-13 -16 -12 -17 4 -4 9 7 17 15 17 17 0 8 -8 3 -21 -13z"/>
<path d="M5655 1428 l-50 -53 53 50 c48 46 57 55 49 55 -1 0 -25 -24 -52 -52z"/>
<path d="M5539 1443 c-13 -16 -12 -17 4 -4 9 7 17 15 17 17 0 8 -8 3 -21 -13z"/>
<path d="M2224 1408 l-19 -23 23 19 c21 18 27 26 19 26 -2 0 -12 -10 -23 -22z"/>
<path d="M4064 1398 l-19 -23 23 19 c12 11 22 21 22 23 0 8 -8 2 -26 -19z"/>
<path d="M5769 1373 l-24 -28 28 24 c15 14 27 26 27 28 0 8 -8 1 -31 -24z"/>
<path d="M1940 1323 l-65 -68 68 65 c62 60 72 70 64 70 -1 0 -32 -30 -67 -67z"/>
<path d="M3459 1363 c-13 -16 -12 -17 4 -4 16 13 21 21 13 21 -2 0 -10 -8 -17
-17z"/>
<path d="M3505 1338 l-40 -43 43 40 c23 21 42 40 42 42 0 8 -9 0 -45 -39z"/>
<path d="M5589 1343 c-13 -16 -12 -17 4 -4 9 7 17 15 17 17 0 8 -8 3 -21 -13z"/>
<path d="M5299 1323 c-13 -16 -12 -17 4 -4 16 13 21 21 13 21 -2 0 -10 -8 -17
-17z"/>
<path d="M5625 1300 c-21 -21 -41 -37 -45 -35 -4 3 -15 -4 -24 -14 -13 -15
-14 -18 -2 -18 8 0 39 24 68 54 29 29 50 53 47 53 -3 0 -22 -18 -44 -40z"/>
<path d="M5685 1298 l-40 -43 43 40 c39 36 47 45 39 45 -2 0 -21 -19 -42 -42z"/>
<path d="M2510 1245 c-41 -41 -72 -75 -69 -75 2 0 38 34 79 75 41 41 72 75 69
75 -2 0 -38 -34 -79 -75z"/>
<path d="M3399 1303 c-13 -16 -12 -17 4 -4 9 7 17 15 17 17 0 8 -8 3 -21 -13z"/>
<path d="M5939 1303 c-13 -16 -12 -17 4 -4 16 13 21 21 13 21 -2 0 -10 -8 -17
-17z"/>
<path d="M5759 1273 l-24 -28 28 24 c15 14 27 26 27 28 0 8 -8 1 -31 -24z"/>
<path d="M3950 1193 l-65 -68 68 65 c37 35 67 66 67 67 0 8 -10 -2 -70 -64z"/>
<path d="M4079 1223 c-13 -16 -12 -17 4 -4 16 13 21 21 13 21 -2 0 -10 -8 -17
-17z"/>
<path d="M4509 1203 c-13 -16 -12 -17 4 -4 9 7 17 15 17 17 0 8 -8 3 -21 -13z"/>
<path d="M5669 1183 l-34 -38 38 34 c34 33 42 41 34 41 -2 0 -19 -17 -38 -37z"/>
<path d="M5319 1193 c-13 -16 -12 -17 4 -4 9 7 17 15 17 17 0 8 -8 3 -21 -13z"/>
<path d="M2830 1133 l-55 -58 58 55 c31 30 57 56 57 57 0 8 -10 -1 -60 -54z"/>
<path d="M3764 1168 l-19 -23 23 19 c21 18 27 26 19 26 -2 0 -12 -10 -23 -22z"/>
<path d="M3180 1125 c-24 -25 -42 -45 -39 -45 3 0 25 20 49 45 24 25 42 45 39
45 -3 0 -25 -20 -49 -45z"/>
<path d="M4574 1138 l-19 -23 23 19 c21 18 27 26 19 26 -2 0 -12 -10 -23 -22z"/>
<path d="M2654 1118 l-29 -33 33 29 c30 28 37 36 29 36 -2 0 -16 -15 -33 -32z"/>
<path d="M5589 1103 l-24 -28 28 24 c15 14 27 26 27 28 0 8 -8 1 -31 -24z"/>
<path d="M3624 1098 l-19 -23 23 19 c21 18 27 26 19 26 -2 0 -12 -10 -23 -22z"/>
<path d="M4040 1035 c-24 -25 -42 -45 -39 -45 3 0 25 20 49 45 24 25 42 45 39
45 -3 0 -25 -20 -49 -45z"/>
<path d="M4275 1028 l-50 -53 53 50 c28 27 52 51 52 52 0 8 -9 -1 -55 -49z"/>
<path d="M2334 1028 l-29 -33 33 29 c30 28 37 36 29 36 -2 0 -16 -15 -33 -32z"/>
<path d="M2989 1023 l-34 -38 38 34 c20 19 37 36 37 38 0 8 -8 0 -41 -34z"/>
<path d="M2890 925 c-24 -25 -42 -45 -39 -45 3 0 25 20 49 45 24 25 42 45 39
45 -3 0 -25 -20 -49 -45z"/>
<path d="M2839 943 c-13 -16 -12 -17 4 -4 9 7 17 15 17 17 0 8 -8 3 -21 -13z"/>
<path d="M2509 923 l-24 -28 28 24 c25 23 32 31 24 31 -2 0 -14 -12 -28 -27z"/>
<path d="M4874 918 l-19 -23 23 19 c12 11 22 21 22 23 0 8 -8 2 -26 -19z"/>
<path d="M2544 908 l-19 -23 23 19 c21 18 27 26 19 26 -2 0 -12 -10 -23 -22z"/>
<path d="M3734 908 l-19 -23 23 19 c21 18 27 26 19 26 -2 0 -12 -10 -23 -22z"/>
<path d="M2779 883 l-34 -38 38 34 c20 19 37 36 37 38 0 8 -8 0 -41 -34z"/>
<path d="M4049 873 l-24 -28 28 24 c25 23 32 31 24 31 -2 0 -14 -12 -28 -27z"/>
<path d="M2864 868 l-19 -23 23 19 c21 18 27 26 19 26 -2 0 -12 -10 -23 -22z"/>
<path d="M4089 873 c-13 -16 -12 -17 4 -4 16 13 21 21 13 21 -2 0 -10 -8 -17
-17z"/>
<path d="M3809 863 c-13 -16 -12 -17 4 -4 16 13 21 21 13 21 -2 0 -10 -8 -17
-17z"/>
<path d="M3164 828 l-29 -33 33 29 c30 28 37 36 29 36 -2 0 -16 -15 -33 -32z"/>
<path d="M4219 833 c-13 -16 -12 -17 4 -4 16 13 21 21 13 21 -2 0 -10 -8 -17
-17z"/>
<path d="M4939 823 l-24 -28 28 24 c25 23 32 31 24 31 -2 0 -14 -12 -28 -27z"/>
<path d="M4969 823 c-13 -16 -12 -17 4 -4 9 7 17 15 17 17 0 8 -8 3 -21 -13z"/>
<path d="M3889 773 l-24 -28 28 24 c15 14 27 26 27 28 0 8 -8 1 -31 -24z"/>
<path d="M3454 758 l-19 -23 23 19 c21 18 27 26 19 26 -2 0 -12 -10 -23 -22z"/>
<path d="M3405 750 c-3 -6 1 -7 9 -4 18 7 21 14 7 14 -6 0 -13 -4 -16 -10z"/>
<path d="M4529 713 c-13 -16 -12 -17 4 -4 16 13 21 21 13 21 -2 0 -10 -8 -17
-17z"/>
<path d="M4379 673 l-24 -28 28 24 c15 14 27 26 27 28 0 8 -8 1 -31 -24z"/>
<path d="M4319 673 c-13 -16 -12 -17 4 -4 16 13 21 21 13 21 -2 0 -10 -8 -17
-17z"/>
</g>
</svg>
